<?xml version="1.0" encoding="UTF-8" standalone="no"?>
<!DOCTYPE svg PUBLIC "-//W3C//DTD SVG 1.1//EN" "http://www.w3.org/Graphics/SVG/1.1/DTD/svg11.dtd">
<svg width="100%" height="100%" viewBox="0 0 2225 2186" version="1.1" xmlns="http://www.w3.org/2000/svg" xmlns:xlink="http://www.w3.org/1999/xlink" xml:space="preserve" xmlns:serif="http://www.serif.com/" style="fill-rule:evenodd;clip-rule:evenodd;stroke-linejoin:round;stroke-miterlimit:2;">
    <g id="Монтажная-область1" serif:id="Монтажная область1" transform="matrix(0.887132,0,0,0.930809,15.0153,-128.362)">
        <rect x="-16.926" y="137.903" width="2508.01" height="2347.63" style="fill:none;"/>
        <g transform="matrix(4.69678,0,0,4.47639,-192.716,-94.3493)">
            <g transform="matrix(1,0,0,1,-120.926,-41.7266)">
                <path d="M560.792,318.852C556.261,320.225 555.074,321.339 553.609,325.566C552.136,321.339 550.943,320.229 546.416,318.859C550.943,317.484 552.132,316.376 553.601,312.148C555.072,316.376 556.261,317.484 560.792,318.852Z" style="fill:rgb(82,171,181);fill-rule:nonzero;"/>
            </g>
            <g transform="matrix(1,0,0,1,-318.45,330.308)">
                <path d="M452.894,98.477C446.876,100.302 445.298,101.781 443.351,107.394C441.396,101.781 439.812,100.305 433.798,98.485C439.812,96.661 441.392,95.188 443.341,89.572C445.296,95.188 446.876,96.661 452.894,98.477Z" style="fill:rgb(37,126,136);fill-rule:nonzero;"/>
            </g>
            <path d="M452.894,98.477C446.876,100.302 445.298,101.781 443.351,107.394C441.396,101.781 439.812,100.305 433.798,98.485C439.812,96.661 441.392,95.188 443.341,89.572C445.296,95.188 446.876,96.661 452.894,98.477Z" style="fill:rgb(37,126,136);fill-rule:nonzero;"/>
            <path d="M463.505,176.845C452.222,180.265 449.265,183.04 445.615,193.566C441.949,183.04 438.978,180.274 427.701,176.861C438.978,173.439 441.939,170.679 445.595,160.148C449.259,170.679 452.222,173.439 463.505,176.845Z" style="fill:rgb(82,171,181);fill-rule:nonzero;"/>
            <g transform="matrix(1,0,0,1,-260.82,230.394)">
                <path d="M463.505,176.845C452.222,180.265 449.265,183.04 445.615,193.566C441.949,183.04 438.978,180.274 427.701,176.861C438.978,173.439 441.939,170.679 445.595,160.148C449.259,170.679 452.222,173.439 463.505,176.845Z" style="fill:rgb(82,171,181);fill-rule:nonzero;"/>
            </g>
            <path d="M560.792,318.852C556.261,320.225 555.074,321.339 553.609,325.566C552.136,321.339 550.943,320.229 546.416,318.859C550.943,317.484 552.132,316.376 553.601,312.148C555.072,316.376 556.261,317.484 560.792,318.852Z" style="fill:rgb(82,171,181);fill-rule:nonzero;"/>
            <g transform="matrix(1,0,0,1,-40.9609,-3.81641)">
                <path d="M556.435,401.597C551.904,402.97 550.716,404.084 549.251,408.311C547.779,404.084 546.585,402.974 542.058,401.604C546.585,400.229 547.775,399.121 549.244,394.893C550.714,399.121 551.904,400.229 556.435,401.597Z" style="fill:rgb(82,171,181);fill-rule:nonzero;"/>
            </g>
            <g transform="matrix(1,0,0,1,-40.9609,-3.81641)">
                <path d="M544.337,367.585C533.054,371.005 530.097,373.781 526.447,384.306C522.781,373.781 519.81,371.014 508.533,367.601C519.81,364.179 522.771,361.419 526.427,350.888C530.091,361.419 533.054,364.179 544.337,367.585Z" style="fill:rgb(82,171,181);fill-rule:nonzero;"/>
            </g>
            <g transform="matrix(1,0,0,1,-387.699,-275.348)">
                <path d="M544.337,367.585C533.054,371.005 530.097,373.781 526.447,384.306C522.781,373.781 519.81,371.014 508.533,367.601C519.81,364.179 522.771,361.419 526.427,350.888C530.091,361.419 533.054,364.179 544.337,367.585Z" style="fill:rgb(82,171,181);fill-rule:nonzero;"/>
            </g>
            <path d="M374.052,553.588C365.47,556.189 363.22,558.3 360.443,566.306C357.656,558.3 355.396,556.196 346.818,553.6C355.396,550.997 357.648,548.898 360.429,540.888C363.216,548.898 365.47,550.997 374.052,553.588Z" style="fill:rgb(82,171,181);fill-rule:nonzero;"/>
            <path d="M252.052,463.588C243.47,466.189 241.22,468.3 238.443,476.306C235.655,468.3 233.396,466.196 224.817,463.6C233.396,460.997 235.647,458.898 238.429,450.888C241.216,458.898 243.47,460.997 252.052,463.588Z" style="fill:rgb(82,171,181);fill-rule:nonzero;"/>
            <path d="M496.945,549.591C491.582,551.217 490.175,552.536 488.441,557.54C486.697,552.536 485.285,551.221 479.923,549.599C485.285,547.972 486.693,546.659 488.431,541.654C490.173,546.659 491.582,547.972 496.945,549.591Z" style="fill:rgb(82,171,181);fill-rule:nonzero;"/>
            <path d="M564.392,493.586C554.333,496.635 551.697,499.109 548.445,508.491C545.177,499.109 542.529,496.642 532.478,493.601C542.529,490.55 545.167,488.089 548.427,478.703C551.695,488.089 554.333,490.55 564.392,493.586Z" style="fill:rgb(82,171,181);fill-rule:nonzero;"/>
            <path d="M385.541,521.593C382.324,522.569 381.48,523.361 380.439,526.363C379.392,523.361 378.544,522.572 375.328,521.598C378.544,520.622 379.39,519.835 380.433,516.832C381.478,519.835 382.324,520.622 385.541,521.593Z" style="fill:rgb(82,171,181);fill-rule:nonzero;"/>
            <path d="M313.655,131.109C309.893,132.249 308.907,133.175 307.69,136.683C306.469,133.175 305.477,132.252 301.719,131.115C305.477,129.974 306.465,129.054 307.684,125.544C308.905,129.054 309.893,129.974 313.655,131.109Z" style="fill:rgb(37,126,136);fill-rule:nonzero;"/>
            <path d="M390.082,78.423C387.259,79.278 386.521,79.972 385.607,82.603C384.693,79.972 383.949,79.28 381.13,78.427C383.949,77.572 384.689,76.882 385.603,74.25C386.519,76.882 387.259,77.572 390.082,78.423Z" style="fill:rgb(37,126,136);fill-rule:nonzero;"/>
            <path d="M499.603,60.857C496.783,61.712 496.042,62.407 495.13,65.038C494.214,62.407 493.472,61.715 490.652,60.861C493.472,60.007 494.212,59.316 495.126,56.684C496.041,59.316 496.783,60.007 499.603,60.857Z" style="fill:rgb(82,171,181);fill-rule:nonzero;"/>
            <path d="M390.08,138.853C387.257,139.708 386.519,140.403 385.605,143.033C384.691,140.403 383.947,139.71 381.128,138.857C383.947,138.002 384.687,137.312 385.601,134.68C386.517,137.312 387.257,138.002 390.08,138.853Z" style="fill:rgb(82,171,181);fill-rule:nonzero;"/>
            <path d="M255.572,76.852C251.811,77.993 250.824,78.919 249.607,82.427C248.387,78.919 247.395,77.996 243.637,76.858C247.395,75.718 248.383,74.798 249.602,71.288C250.822,74.798 251.811,75.718 255.572,76.852Z" style="fill:rgb(37,126,136);fill-rule:nonzero;"/>
            <path d="M147.568,155.283C143.807,156.423 142.82,157.349 141.604,160.857C140.383,157.349 139.393,156.426 135.633,155.288C139.393,154.148 140.379,153.228 141.6,149.718C142.818,153.228 143.807,154.148 147.568,155.283Z" style="fill:rgb(37,126,136);fill-rule:nonzero;"/>
            <path d="M59.966,148.86C56.146,150.018 55.144,150.958 53.908,154.521C52.669,150.958 51.662,150.021 47.845,148.865C51.662,147.707 52.664,146.773 53.904,143.208C55.142,146.773 56.146,147.707 59.966,148.86Z" style="fill:rgb(82,171,181);fill-rule:nonzero;"/>
            <path d="M565.603,94.857C561.783,96.015 560.781,96.956 559.544,100.518C558.306,96.956 557.298,96.018 553.482,94.862C557.298,93.705 558.3,92.77 559.541,89.206C560.779,92.77 561.783,93.705 565.603,94.857Z" style="fill:rgb(37,126,136);fill-rule:nonzero;"/>
            <path d="M112.695,188.85C103.145,191.745 100.639,194.095 97.548,203.001C94.451,194.095 91.933,191.753 82.39,188.863C91.933,185.969 94.437,183.633 97.537,174.72C100.635,183.633 103.145,185.969 112.695,188.85Z" style="fill:rgb(37,126,136);fill-rule:nonzero;"/>
            <g transform="matrix(1,0,0,1,-40.9609,-3.81641)">
                <path d="M507.587,405.586C498.037,408.482 495.531,410.831 492.441,419.738C489.343,410.831 486.826,408.49 477.283,405.599C486.826,402.705 489.33,400.369 492.429,391.456C495.527,400.369 498.037,402.705 507.587,405.586Z" style="fill:rgb(37,126,136);fill-rule:nonzero;"/>
            </g>
            <g transform="matrix(1,0,0,1,-27.5078,-137.062)">
                <path d="M347.906,373.59C341.935,375.4 340.369,376.868 338.438,382.435C336.502,376.868 334.928,375.405 328.963,373.598C334.928,371.79 336.493,370.329 338.43,364.759C340.367,370.329 341.935,371.79 347.906,373.59Z" style="fill:rgb(37,126,136);fill-rule:nonzero;"/>
            </g>
            <g transform="matrix(1,0,0,1,-191.649,-148.962)">
                <path d="M347.906,373.59C341.935,375.4 340.369,376.868 338.438,382.435C336.502,376.868 334.928,375.405 328.963,373.598C334.928,371.79 336.493,370.329 338.43,364.759C340.367,370.329 341.935,371.79 347.906,373.59Z" style="fill:rgb(37,126,136);fill-rule:nonzero;"/>
            </g>
            <path d="M395.457,457.587C387.25,460.075 385.095,462.095 382.441,469.749C379.777,462.095 377.615,460.082 369.412,457.599C377.615,455.113 379.765,453.104 382.429,445.445C385.091,453.104 387.25,455.113 395.457,457.587Z" style="fill:rgb(37,126,136);fill-rule:nonzero;"/>
            <path d="M115.543,320.861C115.543,321.965 114.648,322.861 113.543,322.861C112.44,322.861 111.543,321.965 111.543,320.861C111.543,319.756 112.44,318.861 113.543,318.861C114.648,318.861 115.543,319.756 115.543,320.861Z" style="fill:rgb(254,255,255);fill-rule:nonzero;"/>
            <path d="M455.542,228.861C455.542,229.965 454.648,230.861 453.542,230.861C452.439,230.861 451.542,229.965 451.542,228.861C451.542,227.756 452.439,226.861 453.542,226.861C454.648,226.861 455.542,227.756 455.542,228.861Z" style="fill:rgb(254,255,255);fill-rule:nonzero;"/>
            <path d="M85.542,356.861C85.542,357.965 84.648,358.861 83.542,358.861C82.439,358.861 81.543,357.965 81.543,356.861C81.543,355.756 82.439,354.861 83.542,354.861C84.648,354.861 85.542,355.756 85.542,356.861Z" style="fill:rgb(254,255,255);fill-rule:nonzero;"/>
            <path d="M369.542,266.861C369.542,267.965 368.648,268.861 367.542,268.861C366.439,268.861 365.542,267.965 365.542,266.861C365.542,265.756 366.439,264.861 367.542,264.861C368.648,264.861 369.542,265.756 369.542,266.861Z" style="fill:rgb(254,255,255);fill-rule:nonzero;"/>
            <path d="M181.543,200.861C181.543,201.965 180.648,202.861 179.543,202.861C178.439,202.861 177.543,201.965 177.543,200.861C177.543,199.756 178.439,198.861 179.543,198.861C180.648,198.861 181.543,199.756 181.543,200.861Z" style="fill:rgb(254,255,255);fill-rule:nonzero;"/>
            <path d="M191.543,260.861C191.543,261.965 190.648,262.861 189.543,262.861C188.439,262.861 187.543,261.965 187.543,260.861C187.543,259.756 188.439,258.861 189.543,258.861C190.648,258.861 191.543,259.756 191.543,260.861Z" style="fill:rgb(254,255,255);fill-rule:nonzero;"/>
            <path d="M355.542,150.861C355.542,151.965 354.648,152.861 353.542,152.861C352.439,152.861 351.542,151.965 351.542,150.861C351.542,149.756 352.439,148.861 353.542,148.861C354.648,148.861 355.542,149.756 355.542,150.861Z" style="fill:rgb(254,255,255);fill-rule:nonzero;"/>
            <path d="M263.543,128.861C263.543,129.965 262.648,130.861 261.543,130.861C260.439,130.861 259.543,129.965 259.543,128.861C259.543,127.756 260.439,126.861 261.543,126.861C262.648,126.861 263.543,127.756 263.543,128.861Z" style="fill:rgb(254,255,255);fill-rule:nonzero;"/>
            <path d="M309.543,318.861C309.543,319.965 308.649,320.861 307.543,320.861C306.44,320.861 305.543,319.965 305.543,318.861C305.543,317.756 306.44,316.861 307.543,316.861C308.649,316.861 309.543,317.756 309.543,318.861Z" style="fill:rgb(254,255,255);fill-rule:nonzero;"/>
            <path d="M261.543,152.861C261.543,153.965 260.648,154.861 259.543,154.861C258.439,154.861 257.543,153.965 257.543,152.861C257.543,151.756 258.439,150.861 259.543,150.861C260.648,150.861 261.543,151.756 261.543,152.861Z" style="fill:rgb(254,255,255);fill-rule:nonzero;"/>
            <path d="M323.543,142.861C323.543,143.965 322.649,144.861 321.543,144.861C320.44,144.861 319.543,143.965 319.543,142.861C319.543,141.756 320.44,140.861 321.543,140.861C322.649,140.861 323.543,141.756 323.543,142.861Z" style="fill:rgb(254,255,255);fill-rule:nonzero;"/>
            <path d="M313.543,114.861C313.543,115.965 312.649,116.861 311.543,116.861C310.44,116.861 309.543,115.965 309.543,114.861C309.543,113.756 310.44,112.861 311.543,112.861C312.649,112.861 313.543,113.756 313.543,114.861Z" style="fill:rgb(254,255,255);fill-rule:nonzero;"/>
            <path d="M289.543,130.861C289.543,131.965 288.648,132.861 287.543,132.861C286.439,132.861 285.543,131.965 285.543,130.861C285.543,129.756 286.439,128.861 287.543,128.861C288.648,128.861 289.543,129.756 289.543,130.861Z" style="fill:rgb(254,255,255);fill-rule:nonzero;"/>
            <g transform="matrix(1,0,0,1,180.652,84.4805)">
                <path d="M355.542,150.861C355.542,151.965 354.648,152.861 353.542,152.861C352.439,152.861 351.542,151.965 351.542,150.861C351.542,149.756 352.439,148.861 353.542,148.861C354.648,148.861 355.542,149.756 355.542,150.861Z" style="fill:rgb(254,255,255);fill-rule:nonzero;"/>
            </g>
            <g transform="matrix(1,0,0,1,180.652,84.4805)">
                <path d="M261.543,152.861C261.543,153.965 260.648,154.861 259.543,154.861C258.439,154.861 257.543,153.965 257.543,152.861C257.543,151.756 258.439,150.861 259.543,150.861C260.648,150.861 261.543,151.756 261.543,152.861Z" style="fill:rgb(254,255,255);fill-rule:nonzero;"/>
            </g>
            <g transform="matrix(1,0,0,1,180.652,84.4805)">
                <path d="M313.543,114.861C313.543,115.965 312.649,116.861 311.543,116.861C310.44,116.861 309.543,115.965 309.543,114.861C309.543,113.756 310.44,112.861 311.543,112.861C312.649,112.861 313.543,113.756 313.543,114.861Z" style="fill:rgb(254,255,255);fill-rule:nonzero;"/>
            </g>
            <g transform="matrix(1,0,0,1,180.652,84.4805)">
                <path d="M289.543,130.861C289.543,131.965 288.648,132.861 287.543,132.861C286.439,132.861 285.543,131.965 285.543,130.861C285.543,129.756 286.439,128.861 287.543,128.861C288.648,128.861 289.543,129.756 289.543,130.861Z" style="fill:rgb(254,255,255);fill-rule:nonzero;"/>
            </g>
            <g transform="matrix(1,0,0,1,-10.8398,370.066)">
                <path d="M390.082,78.423C387.259,79.278 386.521,79.972 385.607,82.603C384.693,79.972 383.949,79.28 381.13,78.427C383.949,77.572 384.689,76.882 385.603,74.25C386.519,76.882 387.259,77.572 390.082,78.423Z" style="fill:rgb(37,126,136);fill-rule:nonzero;"/>
            </g>
            <g transform="matrix(1,0,0,1,-10.8398,370.066)">
                <path d="M255.572,76.852C251.811,77.993 250.824,78.919 249.607,82.427C248.387,78.919 247.395,77.996 243.637,76.858C247.395,75.718 248.383,74.798 249.602,71.288C250.822,74.798 251.811,75.718 255.572,76.852Z" style="fill:rgb(37,126,136);fill-rule:nonzero;"/>
            </g>
            <g transform="matrix(1,0,0,1,-172.535,456.949)">
                <path d="M326.157,23.348L338.549,31.861L352.587,26.479L348.32,40.895L357.777,52.582L342.748,52.98L334.555,65.585L329.534,51.414L315.012,47.517L326.938,38.363L326.157,23.348Z" style="fill:rgb(216,156,79);fill-rule:nonzero;"/>
            </g>
            <g transform="matrix(1,0,0,1,-172.535,456.949)">
                <path d="M346.095,30.181C346.583,29.97 347.15,30.195 347.361,30.683C347.574,31.172 347.349,31.738 346.861,31.951L340.572,34.677C340.083,34.89 339.516,34.664 339.305,34.177C339.092,33.689 339.317,33.121 339.805,32.909L346.095,30.181Z" style="fill:rgb(255,212,136);fill-rule:nonzero;"/>
            </g>
            <g transform="matrix(1,0,0,1,-172.535,456.949)">
                <path d="M330.227,50.242C329.811,49.735 329.063,49.662 328.557,50.079L312.049,63.661C311.542,64.078 311.469,64.826 311.887,65.333C312.301,65.84 313.051,65.912 313.559,65.496L330.065,51.913C330.573,51.497 330.645,50.748 330.227,50.242Z" style="fill:rgb(216,156,79);fill-rule:nonzero;"/>
            </g>
            <g transform="matrix(1,0,0,1,-172.535,456.949)">
                <path d="M331.247,43.116C330.831,42.609 330.083,42.536 329.575,42.953L313.067,56.535C312.559,56.952 312.487,57.701 312.905,58.207C313.321,58.713 314.069,58.787 314.577,58.37L331.084,44.787C331.59,44.371 331.665,43.623 331.247,43.116Z" style="fill:rgb(216,156,79);fill-rule:nonzero;"/>
            </g>
            <g transform="matrix(1,0,0,1,-172.535,456.949)">
                <path d="M343.125,45.152C342.707,44.645 341.958,44.572 341.453,44.989L324.942,58.572C324.438,58.988 324.364,59.736 324.78,60.243C325.198,60.749 325.946,60.822 326.452,60.405L342.962,46.823C343.466,46.406 343.541,45.658 343.125,45.152Z" style="fill:rgb(216,156,79);fill-rule:nonzero;"/>
            </g>
            <g transform="matrix(1,0,0,1,-172.535,456.949)">
                <path d="M308.85,67.548C308.434,67.041 307.686,66.968 307.178,67.385L304.77,69.155C304.262,69.572 304.19,70.32 304.608,70.826C305.024,71.334 305.772,71.406 306.278,70.988L308.688,69.219C309.196,68.802 309.266,68.054 308.85,67.548Z" style="fill:rgb(216,156,79);fill-rule:nonzero;"/>
            </g>
            <g transform="matrix(1,0,0,1,-172.535,456.949)">
                <path d="M311.04,59.34C310.624,58.833 309.875,58.76 309.368,59.177L306.958,60.947C306.452,61.363 306.377,62.111 306.795,62.619C307.211,63.125 307.961,63.197 308.467,62.781L310.877,61.011C311.383,60.595 311.456,59.845 311.04,59.34Z" style="fill:rgb(216,156,79);fill-rule:nonzero;"/>
            </g>
            <g transform="matrix(1,0,0,1,-172.535,456.949)">
                <path d="M323.518,61.748C323.102,61.24 322.354,61.168 321.846,61.584L319.436,63.354C318.93,63.771 318.858,64.519 319.274,65.025C319.69,65.532 320.438,65.605 320.946,65.188L323.356,63.419C323.864,63.002 323.934,62.253 323.518,61.748Z" style="fill:rgb(216,156,79);fill-rule:nonzero;"/>
            </g>
            <path d="M540.017,534.316L547.615,539.534L556.222,536.235L553.605,545.074L559.404,552.24L550.191,552.484L545.166,560.212L542.087,551.524L533.183,549.133L540.498,543.522L540.017,534.316Z" style="fill:rgb(216,156,79);fill-rule:nonzero;"/>
            <path d="M552.242,538.505C552.541,538.376 552.89,538.514 553.019,538.813C553.148,539.112 553.011,539.46 552.71,539.59L548.855,541.262C548.556,541.393 548.207,541.254 548.078,540.954C547.947,540.656 548.085,540.308 548.384,540.178L552.242,538.505Z" style="fill:rgb(255,212,136);fill-rule:nonzero;"/>
            <path d="M543.281,550.999C543.027,550.689 542.568,550.643 542.257,550.899L521.701,568.437C521.388,568.693 521.344,569.152 521.601,569.461C521.854,569.773 522.315,569.818 522.625,569.562L543.183,552.024C543.492,551.769 543.537,551.31 543.281,550.999Z" style="fill:rgb(216,156,79);fill-rule:nonzero;"/>
            <path d="M543.906,546.63C543.65,546.319 543.191,546.275 542.88,546.531L522.323,564.068C522.013,564.324 521.968,564.783 522.224,565.092C522.479,565.403 522.939,565.449 523.25,565.193L543.806,547.656C544.117,547.4 544.162,546.941 543.906,546.63Z" style="fill:rgb(216,156,79);fill-rule:nonzero;"/>
            <path d="M551.187,547.879C550.933,547.568 550.472,547.523 550.162,547.779L529.607,565.316C529.296,565.572 529.251,566.031 529.507,566.341C529.761,566.652 530.22,566.696 530.531,566.44L551.087,548.903C551.4,548.647 551.443,548.189 551.187,547.879Z" style="fill:rgb(216,156,79);fill-rule:nonzero;"/>
            <path d="M519.74,570.82C519.486,570.509 519.025,570.464 518.714,570.72L517.237,571.805C516.927,572.061 516.882,572.52 517.138,572.829C517.393,573.14 517.853,573.185 518.164,572.929L519.64,571.845C519.951,571.589 519.995,571.13 519.74,570.82Z" style="fill:rgb(216,156,79);fill-rule:nonzero;"/>
            <path d="M521.081,565.787C520.826,565.476 520.367,565.432 520.056,565.687L518.58,566.772C518.268,567.028 518.224,567.487 518.479,567.797C518.736,568.108 519.195,568.153 519.505,567.897L520.982,566.812C521.292,566.556 521.336,566.098 521.081,565.787Z" style="fill:rgb(216,156,79);fill-rule:nonzero;"/>
            <path d="M528.732,567.263C528.478,566.952 528.019,566.908 527.707,567.162L526.23,568.248C525.919,568.503 525.876,568.962 526.13,569.274C526.386,569.583 526.845,569.628 527.156,569.373L528.632,568.287C528.945,568.033 528.988,567.574 528.732,567.263Z" style="fill:rgb(216,156,79);fill-rule:nonzero;"/>
            <g transform="matrix(1,0,0,1,146.872,-97.1055)">
                <path d="M40.533,194.076L49.507,200.243L59.674,196.343L56.585,206.784L63.433,215.251L52.548,215.538L46.614,224.669L42.977,214.406L32.46,211.581L41.097,204.95L40.533,194.076Z" style="fill:rgb(216,156,79);fill-rule:nonzero;"/>
            </g>
            <g transform="matrix(1,0,0,1,146.872,-97.1055)">
                <path d="M54.973,199.027C55.327,198.872 55.738,199.036 55.891,199.389C56.044,199.741 55.881,200.154 55.528,200.308L50.972,202.282C50.619,202.437 50.208,202.273 50.054,201.921C49.9,201.567 50.063,201.155 50.418,201.001L54.973,199.027Z" style="fill:rgb(255,212,136);fill-rule:nonzero;"/>
            </g>
            <g transform="matrix(1,0,0,1,146.872,-97.1055)">
                <path d="M44.387,213.784C44.085,213.419 43.543,213.365 43.176,213.667L18.893,234.385C18.526,234.687 18.474,235.23 18.776,235.597C19.078,235.963 19.62,236.015 19.987,235.713L44.27,214.995C44.637,214.695 44.689,214.152 44.387,213.784Z" style="fill:rgb(216,156,79);fill-rule:nonzero;"/>
            </g>
            <g transform="matrix(1,0,0,1,146.872,-97.1055)">
                <path d="M45.126,208.624C44.824,208.256 44.282,208.204 43.915,208.506L19.631,229.224C19.262,229.527 19.21,230.067 19.512,230.433C19.814,230.802 20.357,230.853 20.724,230.552L45.008,209.834C45.374,209.533 45.427,208.991 45.126,208.624Z" style="fill:rgb(216,156,79);fill-rule:nonzero;"/>
            </g>
            <g transform="matrix(1,0,0,1,146.872,-97.1055)">
                <path d="M53.728,210.099C53.426,209.731 52.883,209.679 52.516,209.981L28.233,230.699C27.867,231.001 27.813,231.541 28.115,231.908C28.417,232.277 28.96,232.328 29.326,232.027L53.61,211.309C53.977,211.007 54.03,210.466 53.728,210.099Z" style="fill:rgb(216,156,79);fill-rule:nonzero;"/>
            </g>
            <g transform="matrix(1,0,0,1,146.872,-97.1055)">
                <path d="M16.577,237.199C16.276,236.832 15.733,236.781 15.367,237.082L13.622,238.365C13.254,238.666 13.202,239.208 13.503,239.574C13.805,239.942 14.348,239.993 14.714,239.693L16.46,238.411C16.827,238.11 16.879,237.568 16.577,237.199Z" style="fill:rgb(216,156,79);fill-rule:nonzero;"/>
            </g>
            <g transform="matrix(1,0,0,1,146.872,-97.1055)">
                <path d="M18.164,231.254C17.861,230.888 17.319,230.833 16.952,231.138L15.207,232.418C14.84,232.72 14.787,233.263 15.088,233.628C15.391,233.997 15.933,234.049 16.299,233.747L18.044,232.464C18.413,232.163 18.464,231.62 18.164,231.254Z" style="fill:rgb(216,156,79);fill-rule:nonzero;"/>
            </g>
            <g transform="matrix(1,0,0,1,241.816,-83.4766)">
                <path d="M115.543,320.861C115.543,321.965 114.648,322.861 113.543,322.861C112.44,322.861 111.543,321.965 111.543,320.861C111.543,319.756 112.44,318.861 113.543,318.861C114.648,318.861 115.543,319.756 115.543,320.861Z" style="fill:rgb(254,255,255);fill-rule:nonzero;"/>
            </g>
            <g transform="matrix(1,0,0,1,241.816,-83.4766)">
                <path d="M85.542,356.861C85.542,357.965 84.648,358.861 83.542,358.861C82.439,358.861 81.543,357.965 81.543,356.861C81.543,355.756 82.439,354.861 83.542,354.861C84.648,354.861 85.542,355.756 85.542,356.861Z" style="fill:rgb(254,255,255);fill-rule:nonzero;"/>
            </g>
            <g transform="matrix(1,0,0,1,4.54297,-54.25)">
                <path d="M93.326,311.533C93.326,326.206 81.429,338.101 66.758,338.101C52.084,338.101 40.19,326.206 40.19,311.533C40.19,296.861 52.084,284.964 66.758,284.964C81.429,284.964 93.326,296.861 93.326,311.533Z" style="fill:rgb(58,83,164);fill-rule:nonzero;"/>
            </g>
            <g transform="matrix(1,0,0,1,4.54297,-54.25)">
                <path d="M83.665,300.264C83.665,304.858 79.942,308.581 75.346,308.581C70.752,308.581 67.028,304.858 67.028,300.264C67.028,295.669 70.752,291.946 75.346,291.946C79.942,291.946 83.665,295.669 83.665,300.264Z" style="fill:rgb(106,131,193);fill-rule:nonzero;"/>
            </g>
        </g>
    </g>
</svg>
