<?xml version="1.0" encoding="UTF-8" standalone="no"?>
<!DOCTYPE svg PUBLIC "-//W3C//DTD SVG 1.1//EN" "http://www.w3.org/Graphics/SVG/1.1/DTD/svg11.dtd">
<svg width="100%" height="100%" viewBox="0 0 2465 2525" version="1.1" xmlns="http://www.w3.org/2000/svg" xmlns:xlink="http://www.w3.org/1999/xlink" xml:space="preserve" xmlns:serif="http://www.serif.com/" style="fill-rule:evenodd;clip-rule:evenodd;stroke-linejoin:round;stroke-miterlimit:2;">
    <g id="Монтажная-область1" serif:id="Монтажная область1" transform="matrix(1,0,0,1,-11.6095,-13.384)">
        <rect x="11.609" y="13.384" width="2464.86" height="2524.68" style="fill:none;"/>
        <clipPath id="_clip1">
            <rect x="11.609" y="13.384" width="2464.86" height="2524.68"/>
        </clipPath>
        <g clip-path="url(#_clip1)">
            <g transform="matrix(44.8036,0,0,44.8036,-12473.1,-8054.05)">
                <path d="M314.458,194.059C314.458,201.813 311.202,208.099 307.188,208.099C303.172,208.099 299.917,201.813 299.917,194.059C299.917,186.305 307.188,180.019 307.188,180.019C307.188,180.019 314.458,186.305 314.458,194.059Z" style="fill:rgb(216,156,79);fill-rule:nonzero;"/>
            </g>
            <g transform="matrix(44.8036,0,0,44.8036,-12473.1,-8054.05)">
                <path d="M322.458,205.913C316.305,210.635 309.338,211.88 306.893,208.695C304.448,205.51 307.452,199.1 313.602,194.378C319.752,189.658 329.167,191.597 329.167,191.597C329.167,191.597 328.608,201.193 322.458,205.913Z" style="fill:rgb(216,156,79);fill-rule:nonzero;"/>
            </g>
            <g transform="matrix(44.8036,0,0,44.8036,-12473.1,-8054.05)">
                <path d="M317.924,219.478C310.434,217.474 305.202,212.704 306.241,208.825C307.278,204.946 314.192,203.426 321.682,205.431C329.174,207.435 333.366,216.083 333.366,216.083C333.366,216.083 325.415,221.482 317.924,219.478Z" style="fill:rgb(216,156,79);fill-rule:nonzero;"/>
            </g>
            <g transform="matrix(44.8036,0,0,44.8036,-12473.1,-8054.05)">
                <path d="M304.405,224.141C301.432,216.979 302.03,209.925 305.741,208.387C309.45,206.848 314.866,211.407 317.836,218.569C320.807,225.731 316.5,234.324 316.5,234.324C316.5,234.324 307.375,231.303 304.405,224.141Z" style="fill:rgb(216,156,79);fill-rule:nonzero;"/>
            </g>
            <g transform="matrix(44.8036,0,0,44.8036,-12473.1,-8054.05)">
                <path d="M292.473,216.256C296.345,209.538 302.303,205.717 305.784,207.723C309.262,209.728 308.944,216.8 305.071,223.518C301.2,230.236 291.761,232.05 291.761,232.05C291.761,232.05 288.601,222.974 292.473,216.256Z" style="fill:rgb(216,156,79);fill-rule:nonzero;"/>
            </g>
            <g transform="matrix(44.8036,0,0,44.8036,-12473.1,-8054.05)">
                <path d="M291.463,201.99C299.149,200.97 305.809,203.372 306.336,207.353C306.864,211.334 301.061,215.386 293.374,216.406C285.687,217.425 278.5,211.043 278.5,211.043C278.5,211.043 283.776,203.009 291.463,201.99Z" style="fill:rgb(216,156,79);fill-rule:nonzero;"/>
            </g>
            <g transform="matrix(44.8036,0,0,44.8036,-12473.1,-8054.05)">
                <path d="M302.163,192.502C307.653,197.979 309.803,204.724 306.965,207.566C304.129,210.409 297.381,208.273 291.893,202.796C286.402,197.32 287.089,187.732 287.089,187.732C287.089,187.732 296.675,187.026 302.163,192.502Z" style="fill:rgb(216,156,79);fill-rule:nonzero;"/>
            </g>
            <g transform="matrix(44.8036,0,0,44.8036,-12473.1,-8054.05)">
                <path d="M319.366,199.162C316.008,206.152 310.352,210.408 306.733,208.669C303.114,206.929 302.901,199.854 306.26,192.865C309.618,185.876 318.893,183.359 318.893,183.359C318.893,183.359 322.725,192.173 319.366,199.162Z" style="fill:rgb(216,156,79);fill-rule:nonzero;"/>
            </g>
            <g transform="matrix(44.8036,0,0,44.8036,-12473.1,-8054.05)">
                <path d="M321.442,213.313C313.854,214.905 307.034,213.009 306.209,209.079C305.385,205.149 310.868,200.672 318.458,199.08C326.045,197.489 333.692,203.314 333.692,203.314C333.692,203.314 329.032,211.72 321.442,213.313Z" style="fill:rgb(216,156,79);fill-rule:nonzero;"/>
            </g>
            <g transform="matrix(44.8036,0,0,44.8036,-12473.1,-8054.05)">
                <path d="M311.483,223.575C305.598,218.525 302.95,211.96 305.565,208.913C308.18,205.866 315.071,207.491 320.954,212.541C326.838,217.591 326.872,227.202 326.872,227.202C326.872,227.202 317.366,228.626 311.483,223.575Z" style="fill:rgb(216,156,79);fill-rule:nonzero;"/>
            </g>
            <g transform="matrix(44.8036,0,0,44.8036,-12473.1,-8054.05)">
                <path d="M297.277,221.923C297.7,214.181 301.293,208.081 305.303,208.302C309.315,208.521 312.221,214.976 311.797,222.718C311.374,230.46 303.77,236.339 303.77,236.339C303.77,236.339 296.853,229.665 297.277,221.923Z" style="fill:rgb(216,156,79);fill-rule:nonzero;"/>
            </g>
            <g transform="matrix(44.8036,0,0,44.8036,-12473.1,-8054.05)">
                <path d="M289.937,209.65C296.337,205.271 303.364,204.408 305.629,207.722C307.899,211.036 304.547,217.273 298.149,221.65C291.749,226.03 282.456,223.577 282.456,223.577C282.456,223.577 283.538,214.027 289.937,209.65Z" style="fill:rgb(216,156,79);fill-rule:nonzero;"/>
            </g>
            <g transform="matrix(44.8036,0,0,44.8036,-12473.1,-8054.05)">
                <path d="M295.205,196.353C302.575,198.763 307.538,203.812 306.29,207.628C305.04,211.445 298.054,212.584 290.685,210.174C283.313,207.764 279.601,198.899 279.601,198.899C279.601,198.899 287.835,193.943 295.205,196.353Z" style="fill:rgb(216,156,79);fill-rule:nonzero;"/>
            </g>
            <g transform="matrix(44.8036,0,0,44.8036,-12473.1,-8054.05)">
                <path d="M308.959,192.435C311.536,199.749 310.551,206.76 306.764,208.093C302.975,209.427 297.819,204.578 295.243,197.265C292.667,189.951 297.438,181.608 297.438,181.608C297.438,181.608 306.383,185.122 308.959,192.435Z" style="fill:rgb(216,156,79);fill-rule:nonzero;"/>
            </g>
            <g transform="matrix(44.8036,0,0,44.8036,-12473.1,-8054.05)">
                <path d="M322.981,207.597C322.981,216.736 315.575,224.144 306.434,224.144C297.296,224.144 289.888,216.736 289.888,207.597C289.888,198.458 297.296,191.05 306.434,191.05C315.575,191.05 322.981,198.458 322.981,207.597Z" style="fill:rgb(206,84,34);fill-rule:nonzero;"/>
            </g>
            <g transform="matrix(44.8036,0,0,44.8036,-12473.1,-8054.05)">
                <path d="M318.569,201.568C317.584,202.991 315.172,203.029 313.178,201.652C311.184,200.274 310.366,198.003 311.35,196.578C312.333,195.155 314.747,195.117 316.741,196.494C318.735,197.872 319.553,200.144 318.569,201.568Z" style="fill:rgb(248,132,77);fill-rule:nonzero;"/>
            </g>
        </g>
    </g>
</svg>
